<?xml version="1.0" encoding="UTF-8" standalone="no"?>
<svg width="126px" height="151px" viewBox="0 0 126 151" version="1.1" xmlns="http://www.w3.org/2000/svg" xmlns:xlink="http://www.w3.org/1999/xlink">
    <!-- Generator: Sketch 39.1 (31720) - http://www.bohemiancoding.com/sketch -->
    <title>Group</title>
    <desc>Created with Sketch.</desc>
    <defs></defs>
    <g id="Page-1" stroke="none" stroke-width="1" fill="none" fill-rule="evenodd">
        <g id="Desktop-HD-Copy-3" transform="translate(-629.000000, -1121.000000)">
            <g id="Group-34" transform="translate(204.000000, 1121.000000)">
                <g id="Group" transform="translate(425.000000, 0.000000)">
                    <path d="M110.798387,7.36503276 C85.2406625,-8.37620862 68.2554584,6.4078431 63.0536953,12.1172397 C57.8519321,6.4078431 40.8685039,-8.37620862 15.3107799,7.36503276 C-2.6139028,18.4037914 -4.81253127,48.6449466 11.538658,67.6360155 C25.9949066,84.4267914 62.7855265,103.636291 63.0536953,103.547498 C63.3236399,103.636291 100.11426,84.4267914 114.568732,67.6360155 C130.919922,48.6449466 128.723069,18.4037914 110.798387,7.36503276" id="Fill-16" fill="#FFFFFF"></path>
                    <path d="M20.4246334,49.9882086 C20.4246334,49.9882086 38.8110636,30.1216397 63.8608654,30.1216397 C88.9124431,30.1216397 103.482353,51.4390879 103.482353,51.4390879 C103.482353,51.4390879 94.2083317,69.8050534 61.513057,69.2616397 C37.7863394,68.8673983 20.4246334,49.9882086 20.4246334,49.9882086" id="Fill-18" fill="#FFFFFF"></path>
                    <path d="M20.4246334,49.9882086 C20.4246334,49.9882086 38.8110636,30.1216397 63.8608654,30.1216397 C88.9124431,30.1216397 103.482353,51.4390879 103.482353,51.4390879 C103.482353,51.4390879 94.2083317,69.8050534 61.513057,69.2616397 C37.7863394,68.8673983 20.4246334,49.9882086 20.4246334,49.9882086 L20.4246334,49.9882086 Z" id="Stroke-20" stroke="#002FF7" stroke-width="3.049"></path>
                    <path d="M46.8230931,33.1564103 C46.8230931,33.1564103 43.4203692,54.3282379 63.4584347,57.7307897 C83.4965002,61.1333414 84.2530557,34.6694448 84.2530557,34.6694448 C84.2530557,34.6694448 75.1797173,29.3756 65.3498235,29.3756 C55.5181537,29.3756 46.8230931,33.1564103 46.8230931,33.1564103" id="Fill-22" fill="#002FF7"></path>
                    <path d="M52.5034753,30.6654086 C52.5034753,30.6654086 50.3687811,48.2748569 64.777079,48.2748569 C79.1871528,48.2748569 79.7199384,33.3345293 79.7199384,33.3345293 C79.7199384,33.3345293 72.7830702,30.13265 64.777079,30.13265 C56.7728637,30.13265 52.5034753,30.6654086 52.5034753,30.6654086" id="Fill-24" fill="#002FF7"></path>
                    <path d="M20.4246334,49.9882086 C20.4246334,49.9882086 38.8110636,30.1216397 63.8608654,30.1216397" id="Stroke-26" stroke="#002FF7" stroke-width="3.049"></path>
                    <path d="M79.9889951,34.2780448 C79.9889951,37.4763724 77.149248,40.069131 73.6452949,40.069131 C70.1431177,40.069131 67.3015946,37.4763724 67.3015946,34.2780448 C67.3015946,31.0797172 68.3494063,30.4546138 71.8533594,30.4546138 C75.3573125,30.4546138 79.9889951,31.0797172 79.9889951,34.2780448" id="Fill-28" fill="#FFFFFF"></path>
                    <path d="M63.8615758,30.1225276 C88.9113776,30.1225276 103.483063,51.4382 103.483063,51.4382" id="Stroke-30" stroke="#002FF7" stroke-width="3.049"></path>
                    <path d="M76.5956838,132.44184 C76.5956838,145.521064 70.16141,150.378047 62.2246809,150.378047 C54.2879518,150.378047 47.8554539,145.521064 47.8554539,132.44184 C47.8554539,119.362616 62.2246809,103.015805 62.2246809,103.015805 C62.2246809,103.015805 76.5956838,119.362616 76.5956838,132.44184" id="Fill-32" fill="#FFFFFF"></path>
                </g>
            </g>
        </g>
    </g>
</svg>