<?xml version="1.0" encoding="UTF-8" standalone="no"?>
<svg width="145px" height="92px" viewBox="0 0 145 92" version="1.1" xmlns="http://www.w3.org/2000/svg" xmlns:xlink="http://www.w3.org/1999/xlink">
    <!-- Generator: Sketch 39.1 (31720) - http://www.bohemiancoding.com/sketch -->
    <title>Group Copy</title>
    <desc>Created with Sketch.</desc>
    <defs></defs>
    <g id="Page-1" stroke="none" stroke-width="1" fill="none" fill-rule="evenodd">
        <g id="Desktop-HD-Copy-3" transform="translate(-649.000000, -31.000000)">
            <g id="Group-Copy" transform="translate(649.000000, 31.000000)">
                <g id="Page-1-Copy">
                    <g id="Group-53" transform="translate(0.000000, 0.055725)">
                        <path d="M144.97713,44.9239286 C144.97713,32.8390714 136.163766,22.8130429 124.59738,20.8698714 C122.394698,11.6146714 114.056539,4.72715714 104.100311,4.72715714 C99.7885386,4.72715714 95.7812659,6.02041429 92.4423114,8.23564286 C87.1458568,3.2959 80.0342659,0.266471429 72.2095386,0.266471429 C64.5265159,0.266471429 57.5276295,3.18155714 52.2634705,7.96292857 C49.0115159,5.91592857 45.162425,4.72715714 41.0325614,4.72715714 C31.075675,4.72715714 22.738175,11.6146714 20.5348341,20.8698714 C8.96910682,22.8130429 0.155743182,32.8390714 0.155743182,44.9239286 C0.155743182,56.8944429 8.803675,66.8442429 20.2085841,68.9201571 C21.7653568,78.9908714 30.495675,86.7024429 41.0325614,86.7024429 C45.162425,86.7024429 49.0115159,85.5136714 52.2634705,83.4666714 C57.5276295,88.2473857 64.5265159,91.1631286 72.2095386,91.1631286 C80.0342659,91.1631286 87.1458568,88.1337 92.4423114,83.1933 C95.7812659,85.4091857 99.7885386,86.7024429 104.100311,86.7024429 C114.637198,86.7024429 123.366857,78.9908714 124.924289,68.9201571 C136.329198,66.8442429 144.97713,56.8944429 144.97713,44.9239286" id="Fill-15" fill="#FFFFFF"></path>
                        <path d="M49.2963091,34.3575314 C49.0221273,33.8107886 48.3847864,33.5985314 47.8232409,33.8784743 L46.3159,34.6322171 C46.2190136,34.6815029 46.1985818,34.7413029 46.2460364,34.8365886 L47.2214909,36.7784457 C47.2689455,36.8737314 47.3309,36.8927886 47.4277864,36.8467886 L48.9351273,36.0930457 C49.4834909,35.81836 49.70165,35.1625314 49.4274682,34.6157886 L49.2963091,34.3575314 Z M47.5325818,30.84576 C47.2649909,30.3128171 46.5874455,30.08676 46.0522636,30.35356 L44.5449227,31.1066457 C44.4480364,31.1559314 44.4276045,31.2157314 44.4757182,31.3110171 L45.3892182,33.1280171 C45.4373318,33.2259314 45.4986273,33.2449886 45.5941955,33.1989886 L47.1028545,32.4452457 C47.6360591,32.1784457 47.8693773,31.5147314 47.5951955,30.9679886 L47.5325818,30.84576 Z M49.6548545,37.5289029 L46.5722864,39.0685886 C46.4754,39.1152457 46.4141045,39.0961886 46.3659909,38.9982743 L42.1801045,30.6637314 C42.1319909,30.5684457 42.1524227,30.5060171 42.2479909,30.45936 L45.3305591,28.9196743 C46.8939227,28.1389886 48.3742409,28.6318457 49.1572409,30.1873029 L49.2251273,30.3233314 C49.3833091,30.63876 49.4518545,31.0501314 49.3905591,31.4036743 C49.2949909,31.93136 49.2060136,32.23036 49.2336955,32.2875314 C49.2607182,32.3420743 49.5487409,32.43736 49.9949455,32.67656 C50.3521727,32.8723886 50.6738091,33.2068743 50.8392409,33.5361029 L50.9414,33.7398171 C51.7178091,35.28476 51.2320591,36.7403314 49.6548545,37.5289029 L49.6548545,37.5289029 Z" id="Fill-17" fill="#002FF7"></path>
                        <path d="M57.3036045,28.6969029 C57.2653773,28.6127886 57.1329,28.3624171 56.9186955,27.9300171 L56.8751955,27.94316 C56.8956273,28.4274743 56.9094682,28.7080743 56.9186955,28.8000743 L56.9476955,30.8838743 C56.95165,30.9003029 56.9450591,30.93316 56.9490136,30.9489314 C56.9734,31.0363314 57.0445818,31.0632743 57.1480591,31.0363314 L58.2283091,30.7425886 C58.3324455,30.7149886 58.3785818,30.6551886 58.3541955,30.5658171 C58.3495818,30.5520171 58.3278318,30.5250743 58.3238773,30.5112743 L57.3036045,28.6969029 Z M62.0042409,33.10896 C62.0286273,33.1957029 61.9811727,33.25616 61.8776955,33.2857314 L60.3835364,33.6911886 C60.2952182,33.7155029 60.2418318,33.6964457 60.2075591,33.62876 L59.3401955,32.2001314 C59.3059227,32.1298171 59.25715,32.1271886 59.1681727,32.1515029 L57.0538091,32.7251886 C56.9654909,32.75016 56.9246273,32.7771029 56.9299,32.8533314 L56.9094682,34.5237886 C56.9147409,34.6026457 56.8626727,34.6460171 56.7895136,34.6677029 L55.3105136,35.0672457 C55.2070364,35.0974743 55.1345364,35.0672457 55.1114682,34.9805029 C55.1075136,34.9640743 55.1180591,34.9450171 55.11015,34.9180743 L55.4034455,25.1746171 C55.4126727,25.0924743 55.4350818,25.05436 55.5234,25.0300457 L56.5884909,24.74156 C56.6623091,24.7198743 56.7143773,24.7389314 56.7644682,24.8046457 L61.9732636,33.0517886 C61.9811727,33.0820171 62.0002864,33.0925314 62.0042409,33.10896 L62.0042409,33.10896 Z" id="Fill-19" fill="#002FF7"></path>
                        <path d="M72.5938545,32.10524 C72.5978091,32.1676686 72.5404682,32.2300971 72.4343545,32.23864 L70.6455818,32.3634971 L70.5190364,32.2958114 L67.8523545,28.63684 C67.8016045,28.5796686 67.75415,28.5527257 67.7225136,28.5553543 C67.6612182,28.5579829 67.6177182,28.57704 67.5900364,28.6263257 L67.0350818,29.4746971 L67.2426955,32.4482686 C67.2506045,32.5540686 67.2071045,32.6033543 67.1003318,32.61124 L65.6490136,32.7117829 C65.5415818,32.71704 65.49215,32.6762971 65.4855591,32.5704971 L64.8350364,23.2758686 C64.8277864,23.1667829 64.8699682,23.1181543 64.9767409,23.11224 L66.4293773,23.0116971 C66.5209909,23.0038114 66.5849227,23.0445543 66.5928318,23.1529829 L66.8294455,26.53464 C66.8360364,26.64044 66.9026045,26.71404 66.9790591,26.7087829 C67.0258545,26.7054971 67.0693545,26.6706686 67.1102182,26.6075829 L69.5818091,22.8539829 L69.6991273,22.7830114 L71.4575818,22.6607829 C71.5636955,22.6528971 71.6282864,22.6962686 71.6335591,22.7724971 C71.6361955,22.8020686 71.6236727,22.8487257 71.59665,22.8973543 L68.8877864,26.76004 C68.8739455,26.7902686 68.8614227,26.8224686 68.8614227,26.8388971 C68.8647182,26.8691257 68.8818545,26.8986971 68.8983318,26.9262971 L72.5556273,32.0020686 C72.5734227,32.03164 72.5912182,32.0750114 72.5938545,32.10524" id="Fill-21" fill="#002FF7"></path>
                        <path d="M77.9820545,32.7199971 L76.5333727,32.5760829 C76.4272591,32.5649114 76.3857364,32.5162829 76.3969409,32.4098257 L77.33285,23.1395114 C77.3433955,23.0337114 77.3941455,22.9929686 77.5002591,23.0034829 L78.9476227,23.1480543 C79.0392364,23.1585686 79.0965773,23.2104829 79.0853727,23.3162829 L78.1501227,32.5839686 C78.1389182,32.6897686 78.0881682,32.7311686 77.9820545,32.7199971" id="Fill-23" fill="#002FF7"></path>
                        <path d="M88.602975,35.0212457 L87.3764068,34.6841314 L87.2650205,34.5724171 L85.8736795,27.8209314 L84.3307477,33.68856 C84.3017477,33.7917314 84.245725,33.82196 84.1422477,33.79436 L82.7687023,33.4165029 C82.665225,33.3889029 82.6322705,33.3317314 82.6606114,33.22856 L85.144725,24.2467314 C85.173725,24.14356 85.2297477,24.1107029 85.333225,24.1376457 L86.572975,24.4806743 L86.6863386,24.58976 L88.0467023,31.39776 L89.6206114,25.4762457 C89.6489523,25.3730743 89.704975,25.3402171 89.8091114,25.36716 L91.1674977,25.7430457 C91.256475,25.76736 91.3026114,25.82716 91.2736114,25.9303314 L88.791475,34.91216 C88.762475,35.0159886 88.7064523,35.0481886 88.602975,35.0212457" id="Fill-25" fill="#002FF7"></path>
                        <path d="M102.046255,30.9818543 C102.377777,31.6343971 102.385686,32.4150829 102.301323,32.5787114 C102.279573,32.6194543 102.231459,32.6437686 102.163573,32.6437686 L100.675345,32.6141971 C100.641073,32.6109114 100.61405,32.5977686 100.600209,32.5918543 C100.518482,32.5484829 100.534959,32.4531971 100.531005,32.2632829 C100.518482,31.7217971 100.380732,31.3570829 99.9865955,31.1533686 L99.0889136,30.6881114 C98.5445045,30.4048829 97.8827773,30.6118829 97.6006864,31.1559971 L95.5054364,35.1678543 C95.2226864,35.70934 95.4316182,36.3704257 95.9747091,36.6536543 L96.6417091,36.9986543 C97.1861182,37.2792543 97.8254364,37.0775114 98.1160955,36.5228829 L98.4489364,35.8861114 C98.4983682,35.7908257 98.4654136,35.72314 98.3836864,35.6797686 L97.1057091,35.0160543 C97.0101409,34.9667686 96.9910273,34.90434 97.0398,34.8090543 L97.64155,33.6583971 C97.6909818,33.5631114 97.7535955,33.5440543 97.8491636,33.59334 L100.690505,35.0673114 C100.786073,35.1165971 100.805186,35.1790257 100.755755,35.2743114 L99.6807773,37.33314 C98.9307318,38.7722829 97.4220727,39.2132257 95.8982545,38.4213686 L95.2325727,38.0757114 C93.6949136,37.2792543 93.2052091,35.8019971 93.9559136,34.3628543 L96.0498455,30.3509971 C96.7998909,28.9144829 98.30855,28.4741971 99.8323682,29.2627686 L100.728732,29.7280257 C101.354868,30.0539686 101.779982,30.4620543 102.046255,30.9818543" id="Fill-27" fill="#002FF7"></path>
                        <path d="M48.0740909,53.1333514 C47.6595227,53.7195229 48.1123182,54.3004371 48.7068182,55.3150657 C49.6157045,56.8692086 49.7574091,57.9955514 48.8827955,59.2329514 C47.9488636,60.5577514 46.40725,60.8028657 44.9895455,59.8086086 L44.4892955,59.45638 C43.7741818,58.9556371 43.3774091,58.3766943 43.27525,57.7261229 C43.1605682,57.0111514 43.2535,56.5334086 43.3418182,56.4085514 C43.3596136,56.3842371 43.4116818,56.3632086 43.4795682,56.37438 L44.9486818,56.6030657 C44.9829545,56.6070086 44.9954773,56.6162086 45.0198636,56.6339514 C45.1088409,56.6950657 45.04425,56.8383229 44.9941591,57.1754371 C44.9460455,57.5342371 45.1272955,57.9423229 45.4153182,58.14538 L45.9175455,58.4962943 C46.4059318,58.83998 47.1012727,58.7302371 47.4545455,58.2308086 C47.8954773,57.6052086 47.5283636,57.0111514 46.9865909,56.0517229 C46.0757273,54.4213514 45.7712273,53.3672943 46.6445227,52.1298943 C47.5804318,50.8050943 49.1339091,50.5698371 50.5377727,51.5542371 L50.7256136,51.6863229 C51.3029773,52.09178 51.6654773,52.5320657 51.8638636,53.1018086 C52.1050909,53.7944371 52.0220455,54.5764371 51.9152727,54.72758 C51.8796818,54.7762086 51.8375,54.7847514 51.7696136,54.77358 L50.3005,54.5462086 C50.2662273,54.5409514 50.2418409,54.5232086 50.228,54.5153229 C50.1653864,54.46998 50.1937273,54.37798 50.1976818,54.2130371 C50.2418409,53.6459229 50.1884545,53.2706943 49.7995909,52.9986371 L49.61175,52.8665514 C49.1233636,52.52418 48.4352727,52.62078 48.0740909,53.1333514" id="Fill-29" fill="#002FF7"></path>
                        <path d="M56.1836773,65.6949657 L55.4824045,65.4255371 C53.8676318,64.80388 53.2151318,63.3897086 53.8004045,61.8789371 L56.3009955,55.4185657 C56.3392227,55.31868 56.3992,55.2917371 56.4987227,55.3311657 L57.8439273,55.8483371 C57.9282909,55.8805371 57.9691545,55.9462514 57.9309273,56.0467943 L55.4309955,62.5058514 C55.2095409,63.0755943 55.4909727,63.7077657 56.0624045,63.9279086 L56.7636773,64.1973371 C57.3351091,64.4181371 57.9500409,64.1473943 58.1767682,63.5625371 L60.6773591,57.10348 C60.7149273,57.0029371 60.7755636,56.9766514 60.8750864,57.0147657 L62.2334727,57.5385086 C62.3343136,57.5766229 62.3600182,57.6364229 62.32245,57.7356514 L59.8205409,64.1947086 C59.2352682,65.7074514 57.7852682,66.31268 56.1836773,65.6949657" id="Fill-31" fill="#002FF7"></path>
                        <path d="M70.7073386,61.7997514 C70.7785205,61.2083229 70.3527477,60.6490943 69.7444068,60.5754943 L68.3734977,60.4112086 C68.266725,60.3987229 68.2166341,60.4381514 68.2027932,60.5446086 L67.9602477,62.5626943 C67.9464068,62.6691514 67.9872705,62.7190943 68.0940432,62.7328943 L69.462975,62.89718 C70.071975,62.97078 70.6170432,62.5436371 70.6908614,61.93578 L70.7073386,61.7997514 Z M72.4262477,62.1440943 C72.2364295,63.7080943 70.9597705,64.6924943 69.2711795,64.4900943 L67.9015886,64.3251514 C67.7948159,64.3133229 67.7434068,64.3527514 67.7308841,64.4585514 L67.2780886,68.2068943 C67.2642477,68.3133514 67.2141568,68.3540943 67.1073841,68.3402943 L65.6613386,68.1661514 C65.555225,68.1543229 65.5156795,68.1037229 65.5275432,67.9959514 L66.6466795,58.7407514 C66.6585432,58.6349514 66.7106114,58.5955229 66.816725,58.6073514 L69.9368614,58.9832371 C71.6551114,59.1882657 72.6332023,60.4302657 72.4262477,62.1440943 L72.4262477,62.1440943 Z" id="Fill-33" fill="#002FF7"></path>
                        <path d="M81.3282591,61.3930457 C81.2570773,60.8016171 80.7100318,60.3580457 80.1016909,60.4303314 L78.7321,60.5933029 C78.6259864,60.6057886 78.5851227,60.6570457 78.5976455,60.7635029 L78.8388727,62.7815886 C78.8507364,62.8880457 78.9028045,62.9274743 79.0095773,62.9149886 L80.3785091,62.7520171 C80.9875091,62.6797314 81.4172364,62.1369314 81.3447364,61.5290743 L81.3282591,61.3930457 Z M83.0781455,61.3233886 C83.2653273,62.8867314 82.2588955,64.1445029 80.5683273,64.3455886 L79.1987364,64.5079029 C79.0926227,64.5210457 79.0530773,64.5716457 79.0649409,64.6774457 L79.5124636,68.4257886 C79.5249864,68.5322457 79.4854409,68.5821886 79.3786682,68.5959886 L77.9332818,68.7675029 C77.8265091,68.7793314 77.7744409,68.7399029 77.7625773,68.6327886 L76.6572818,59.3775886 C76.6454182,59.2711314 76.6849636,59.2211886 76.7910773,59.2073886 L79.9112136,58.8374171 C81.6307818,58.6337029 82.8738273,59.6089029 83.0781455,61.3233886 L83.0781455,61.3233886 Z" id="Fill-35" fill="#002FF7"></path>
                        <path d="M94.7960568,64.6803371 L89.7177614,66.5341371 C89.6162614,66.5709371 89.5576023,66.5433371 89.5213523,66.4427943 L86.3102614,57.69228 C86.2733523,57.5930514 86.300375,57.5332514 86.4012159,57.4964514 L87.7681705,56.9983371 C87.8538523,56.9674514 87.9276705,56.9891371 87.9645795,57.08968 L90.6233523,64.3333657 C90.6602614,64.4339086 90.7189205,64.4615086 90.8197614,64.4247086 L94.2437386,63.1748229 C94.3294205,63.14328 94.4032386,63.1649657 94.4401477,63.2661657 L94.8876705,64.4845086 C94.9245795,64.5850514 94.8968977,64.6435371 94.7960568,64.6803371" id="Fill-37" fill="#002FF7"></path>
                        <path d="M99.7340977,56.97422 L101.978302,60.5701057 C102.033666,60.6614486 102.020484,60.7238771 101.92887,60.7810486 L100.691757,61.5479343 C100.600143,61.6051057 100.53753,61.5899914 100.480189,61.4993057 L98.2366432,57.9014486 L93.3007114,55.0566771 C93.2644614,55.0251343 93.2341432,55.0073914 93.2176659,54.9817629 C93.1781205,54.9167057 93.2058023,54.8457343 93.2967568,54.7898771 L94.7428023,53.89222 L94.907575,53.8974771 L97.7330977,55.6750486 C97.7996659,55.7243343 97.8682114,55.7190771 97.9064386,55.6941057 C97.9459841,55.6697914 97.9809159,55.6113057 97.9677341,55.5311343 L97.6170977,52.21782 L97.6849841,52.0686486 L99.1178477,51.1788771 C99.2088023,51.12302 99.2852568,51.1302486 99.3261205,51.1953057 C99.3425977,51.2209343 99.3452341,51.2551057 99.3564386,51.3011057 L99.7340977,56.97422 Z" id="Fill-39" fill="#002FF7"></path>
                        <polygon id="Fill-41" fill="#002FF7" points="27.5361591 41.0708371 31.5645227 41.0708371 31.5645227 42.2510657 30.2015227 42.2510657 30.2015227 49.3416371 28.8991591 49.3416371 28.8991591 42.2510657 27.5361591 42.2510657"></polygon>
                        <polygon id="Fill-43" fill="#002FF7" points="33.4358795 49.34144 32.1328568 49.34144 32.1328568 41.07064 33.4358795 41.07064 33.4358795 44.6152686 34.9175159 44.6152686 34.9175159 41.07064 36.2442659 41.07064 36.2442659 49.34144 34.9175159 49.34144 34.9175159 45.7968114 33.4358795 45.7968114"></polygon>
                        <polygon id="Fill-45" fill="#002FF7" points="38.4940068 44.5567171 40.2834386 44.5567171 40.2834386 45.7369457 38.4940068 45.7369457 38.4940068 48.1598314 40.7461205 48.1598314 40.7461205 49.3413743 37.1909841 49.3413743 37.1909841 41.0705743 40.7461205 41.0705743 40.7461205 42.25146 38.4940068 42.25146"></polygon>
                        <path d="M108.757645,46.2581914 L108.757645,47.3569343 C108.757645,48.6791057 108.093282,49.4354771 106.813986,49.4354771 C105.534032,49.4354771 104.869668,48.6791057 104.869668,47.3569343 L104.869668,43.0552771 C104.869668,41.7317914 105.534032,40.97542 106.813986,40.97542 C108.093282,40.97542 108.757645,41.7317914 108.757645,43.0552771 L108.757645,43.8589629 L107.524486,43.8589629 L107.524486,42.9724771 C107.524486,42.3817057 107.264145,42.15762 106.849577,42.15762 C106.43435,42.15762 106.174009,42.3817057 106.174009,42.9724771 L106.174009,47.43842 C106.174009,48.0305057 106.43435,48.2427629 106.849577,48.2427629 C107.264145,48.2427629 107.524486,48.0305057 107.524486,47.43842 L107.524486,46.2581914 L108.757645,46.2581914 Z" id="Fill-47" fill="#002FF7"></path>
                        <path d="M111.931893,47.4387486 C111.931893,48.0301771 112.192234,48.25492 112.606802,48.25492 C113.02203,48.25492 113.28237,48.0301771 113.28237,47.4387486 L113.28237,42.9721486 C113.28237,42.3820343 113.02203,42.1572914 112.606802,42.1572914 C112.192234,42.1572914 111.931893,42.3820343 111.931893,42.9721486 L111.931893,47.4387486 Z M110.627552,43.0549486 C110.627552,41.73212 111.327507,40.9757486 112.606802,40.9757486 C113.886757,40.9757486 114.586711,41.73212 114.586711,43.0549486 L114.586711,47.3572629 C114.586711,48.6794343 113.886757,49.4351486 112.606802,49.4351486 C111.327507,49.4351486 110.627552,48.6794343 110.627552,47.3572629 L110.627552,43.0549486 Z" id="Fill-49" fill="#002FF7"></path>
                        <path d="M117.596582,48.5441943 C117.596582,48.1499086 117.275605,47.82988 116.88015,47.82988 C116.484695,47.82988 116.163718,48.1499086 116.163718,48.5441943 C116.163718,48.93848 116.484695,49.2585086 116.88015,49.2585086 C117.275605,49.2585086 117.596582,48.93848 117.596582,48.5441943" id="Fill-51" fill="#002FF7"></path>
                    </g>
                </g>
            </g>
        </g>
    </g>
</svg>